<svg width="24" height="24" viewBox="0 0 24 24" fill="none" xmlns="http://www.w3.org/2000/svg">
    <path d="M13 3H7C5.89543 3 5 3.89543 5 5V19C5 20.1046 5.89543 21 7 21H17C18.1046 21 19 20.1046 19 19V9M13 3V8C13 8.55228 13.4477 9 14 9H19M13 3L19 9M11.2825 12.2714C11.6167 10.4969 11.5759 8.99837 10.7954 9C10.011 9.00164 10.4188 10.5159 11.2825 12.2714ZM11.2825 12.2714C11.0224 13.6526 10.5351 15.201 9.99259 16.3395M11.2825 12.2714C11.9486 13.6251 12.8858 15.1224 13.7565 16.1801M9.99259 16.3395C9.3904 17.6033 8.72022 18.3618 8.21733 17.8257C7.54269 17.1065 8.52394 16.6019 9.99259 16.3395ZM9.99259 16.3395C11.1356 16.1353 12.5739 16.0778 13.7565 16.1801M13.7565 16.1801C15.1865 16.3038 16.2428 16.6611 15.9514 17.2752C15.6122 17.99 14.7255 17.3572 13.7565 16.1801Z"
          stroke="white" stroke-width="1.5" stroke-linejoin="round"/>
</svg>
