<svg width="24" height="24" viewBox="0 0 24 24" fill="none" xmlns="http://www.w3.org/2000/svg">
    <path d="M12 7.33636H14.7C15.1971 7.33636 15.6 6.93243 15.6 6.43416V3.90221C15.6 3.40393 15.1971 3 14.7 3H9.3C8.80294 3 8.4 3.40393 8.4 3.90221V6.43416C8.4 6.93243 8.80294 7.33636 9.3 7.33636H12ZM12 7.33636V11.9801M12 11.9801H7.05C6.55294 11.9801 6.15 12.384 6.15 12.8823V16.4911M12 11.9801H16.95C17.4471 11.9801 17.85 12.384 17.85 12.8823V16.4911M3.9 21H8.4C8.89706 21 9.3 20.5961 9.3 20.0978V17.3933C9.3 16.895 8.89706 16.4911 8.4 16.4911H3.9C3.40294 16.4911 3 16.895 3 17.3933V20.0978C3 20.5961 3.40294 21 3.9 21ZM15.6 21H20.1C20.5971 21 21 20.5961 21 20.0978V17.3933C21 16.895 20.5971 16.4911 20.1 16.4911H15.6C15.1029 16.4911 14.7 16.895 14.7 17.3933V20.0978C14.7 20.5961 15.1029 21 15.6 21Z"
          stroke="white" stroke-width="1.5" stroke-linecap="round" stroke-linejoin="round"/>
</svg>
