<svg width="24" height="24" viewBox="0 0 24 24" fill="none" xmlns="http://www.w3.org/2000/svg">
    <path d="M15.1414 11.9252C15.1414 13.6186 13.7687 14.9913 12.0754 14.9913C10.382 14.9913 9.00931 13.6186 9.00931 11.9252C9.00931 10.2318 10.382 8.85907 12.0754 8.85907C13.7687 8.85907 15.1414 10.2318 15.1414 11.9252Z"
          stroke="white" stroke-width="1.5"/>
    <path d="M8.09092 15.9095C12.5666 20.3853 17.9452 22.2634 20.1043 20.1042C22.2634 17.9451 20.3853 12.5664 15.9096 8.09052C11.4339 3.61467 6.05537 1.73661 3.89629 3.89576C1.73721 6.0549 3.61521 11.4336 8.09092 15.9095Z"
          stroke="white" stroke-width="1.5"/>
    <path d="M15.9091 15.9095C11.4334 20.3853 6.05481 22.2634 3.89573 20.1042C1.73665 17.9451 3.61465 12.5664 8.09036 8.09052C12.5661 3.61467 17.9446 1.73661 20.1037 3.89576C22.2628 6.0549 20.3848 11.4336 15.9091 15.9095Z"
          stroke="white" stroke-width="1.5"/>
</svg>
