<svg width="24" height="24" viewBox="0 0 24 24" fill="none" xmlns="http://www.w3.org/2000/svg">
    <path d="M18.0442 14V14.4C18.0442 15.2837 17.1645 16 16.0795 16L4.96469 16C3.87959 16 3 15.2837 3 14.4L3 9.6C3 8.71634 3.87959 8 4.96469 8L16.0795 8C17.1645 8 18.0442 8.71634 18.0442 9.6V10M18.0442 14V10M18.0442 14H20.0177C20.5602 14 21 13.4418 21 13V11C21 10.5582 20.5602 10 20.0177 10L18.0442 10M6 10V14M9 10V14M12 10V14M15 10V14"
          stroke="white" stroke-width="1.5" stroke-linecap="round" stroke-linejoin="round"/>
</svg>
