<svg width="24" height="24" viewBox="0 0 24 24" fill="none" xmlns="http://www.w3.org/2000/svg">
    <path d="M5 16.9774C6.52042 17.4344 8.10729 17.7465 9.74317 17.8968C10.4859 17.9651 11.2387 18 12 18C12.8707 18 13.7303 17.9543 14.5764 17.8653C16.0995 17.7052 17.5788 17.4046 19 16.9774C17.5908 14.6092 16.6142 11.9717 16.1741 9.16492C16.0004 8.057 15.9103 6.92269 15.9101 5.76815V5.76471C15.9101 3.68552 14.1595 2 12 2C10.0142 2 8.3742 3.42526 8.1232 5.27128C8.10124 5.43276 8.08992 5.59746 8.08992 5.76471C8.08992 9.84544 6.96602 13.6734 5 16.9774Z"
          stroke="white" stroke-width="1.5" stroke-linejoin="round"/>
    <path d="M14.9946 17.8176C14.9982 17.8779 15 17.9387 15 17.9999C15 19.6568 13.6569 20.9999 12 20.9999C10.3431 20.9999 9 19.6568 9 17.9999C9 17.9387 9.00183 17.8779 9.00545 17.8176"
          stroke="white" stroke-width="1.5" stroke-linejoin="round"/>
</svg>
