<svg width="24" height="24" viewBox="0 0 24 24" fill="none" xmlns="http://www.w3.org/2000/svg">
    <path d="M14.9946 17.8177C14.9982 17.878 15 17.9388 15 18C15 19.6569 13.6569 21 12 21C10.3431 21 9 19.6569 9 18C9 17.9388 9.00183 17.878 9.00545 17.8177M4.03126 3C2.78563 4.09942 2 5.70796 2 7.5C2 9.292 2.78563 10.9006 4.03126 12M19.9687 3C21.2144 4.09942 22 5.70796 22 7.5C22 9.292 21.2144 10.9006 19.9687 12M5 16.9774C6.52042 17.4344 8.10729 17.7465 9.74317 17.8968C10.4859 17.9651 11.2387 18 12 18C12.8707 18 13.7303 17.9543 14.5764 17.8653C16.0995 17.7052 17.5788 17.4046 19 16.9774C17.5908 14.6092 16.6142 11.9717 16.1741 9.16492C16.0004 8.057 15.9103 6.92269 15.9101 5.76815V5.76471C15.9101 3.68552 14.1595 2 12 2C10.0142 2 8.3742 3.42526 8.1232 5.27128C8.10124 5.43276 8.08992 5.59746 8.08992 5.76471C8.08992 9.84544 6.96602 13.6734 5 16.9774Z"
          stroke="white" stroke-width="1.5" stroke-linecap="round" stroke-linejoin="round"/>
</svg>
