<svg width="24" height="24" viewBox="0 0 24 24" fill="none" xmlns="http://www.w3.org/2000/svg">
    <path d="M13.9946 17.8177C13.9982 17.878 14 17.9388 14 18C14 19.6569 12.6569 21 11 21C9.34315 21 8 19.6569 8 18C8 17.9388 8.00183 17.878 8.00545 17.8177M13 2.52907C12.4148 2.19305 11.7308 2 11 2C9.0142 2 7.3742 3.42526 7.1232 5.27128C7.10124 5.43276 7.08992 5.59746 7.08992 5.76471C7.08992 9.84544 5.96602 13.6734 4 16.9774C5.52042 17.4344 7.10729 17.7465 8.74317 17.8968C9.4859 17.9651 10.2387 18 11 18C11.8707 18 12.7303 17.9543 13.5764 17.8653C15.0995 17.7052 16.5788 17.4046 18 16.9774C17.434 16.0262 16.9378 15.0316 16.5181 14M14 8H17L14 11H17M17 2H20L17 5H20"
          stroke="white" stroke-width="1.5" stroke-linecap="round" stroke-linejoin="round"/>
</svg>
