<svg width="24" height="24" viewBox="0 0 24 24" fill="none" xmlns="http://www.w3.org/2000/svg">
    <path d="M12.9946 17.8177C12.9982 17.878 13 17.9388 13 18C13 19.6569 11.6569 21 10 21C8.34315 21 7 19.6569 7 18C7 17.9388 7.00183 17.878 7.00545 17.8177M12 2.52907C11.4148 2.19305 10.7308 2 10 2C8.0142 2 6.3742 3.42526 6.1232 5.27128C6.10124 5.43276 6.08992 5.59746 6.08992 5.76471C6.08992 9.84544 4.96602 13.6734 3 16.9774C4.52042 17.4344 6.10729 17.7465 7.74317 17.8968C8.4859 17.9651 9.2387 18 10 18C10.8707 18 11.7303 17.9543 12.5764 17.8653C14.0995 17.7052 15.5788 17.4046 17 16.9774C16.434 16.0262 15.9378 15.0316 15.5181 14M17 3V7M17 7V11M17 7H21M17 7H13"
          stroke="white" stroke-width="1.5" stroke-linecap="round" stroke-linejoin="round"/>
</svg>
