<svg width="24" height="24" viewBox="0 0 24 24" fill="none" xmlns="http://www.w3.org/2000/svg">
    <path d="M14.9946 17.8177C14.9982 17.878 15 17.9388 15 18C15 19.6569 13.6569 21 12 21C10.3431 21 9 19.6569 9 18C9 17.9388 9.00183 17.878 9.00545 17.8177C9.74818 17.886 11.2387 18 12 18C12.8707 18 13.7303 17.9543 14.5764 17.8653C16.0995 17.7052 17.5788 17.4046 19 16.9774C17.9022 15.1326 17.067 13.1244 16.5434 11M20 4L16.0213 7.97867M16.0213 7.97867C15.9479 7.25138 15.9102 6.51399 15.9101 5.76815V5.76471C15.9101 3.68552 14.1595 2 12 2C10.0142 2 8.3742 3.42526 8.1232 5.27128C8.10124 5.43276 8.08992 5.59746 8.08992 5.76471C8.08992 9.84544 6.96602 13.6734 5 16.9774C5.52598 17.1355 6.05991 17.2763 6.60107 17.399M16.0213 7.97867L6.60107 17.399M4 20L6.60107 17.399"
          stroke="white" stroke-width="1.5" stroke-linecap="round" stroke-linejoin="round"/>
</svg>
