<svg width="24" height="24" viewBox="0 0 24 24" fill="none" xmlns="http://www.w3.org/2000/svg">
    <path d="M10.5238 6H7.66667L6.78678 8.41631M6.78678 8.41631L4.80952 15.3077M6.78678 8.41631H14.8571M6.78678 8.41631L13 15.3077M14.8571 8.41631L19.1905 15.3077H13M14.8571 8.41631L13 15.3077M14.381 6H17.2381M1 15.3077C1 17.3469 2.70558 19 4.80952 19C6.91347 19 8.61905 17.3469 8.61905 15.3077C8.61905 13.2685 6.91347 11.6154 4.80952 11.6154C2.70558 11.6154 1 13.2685 1 15.3077ZM15.381 15.3077C15.381 17.3469 17.0865 19 19.1905 19C21.2944 19 23 17.3469 23 15.3077C23 13.2685 21.2944 11.6154 19.1905 11.6154C17.0865 11.6154 15.381 13.2685 15.381 15.3077Z"
          stroke="white" stroke-width="1.5" stroke-linecap="round" stroke-linejoin="round"/>
</svg>
