<svg width="24" height="24" viewBox="0 0 24 24" fill="none" xmlns="http://www.w3.org/2000/svg">
    <path d="M12 4H7C5.89543 4 5 4.89543 5 6V18.9941C5 19.8192 5.94295 20.2893 6.60189 19.7927L11.3981 16.1778C11.7544 15.9092 12.2456 15.9092 12.6019 16.1778L17.3981 19.7927C18.057 20.2893 19 19.8192 19 18.9941V14M17 12L16.42 11.4964C14.36 9.71498 13 8.54008 13 7.09809C13 5.92316 13.968 5 15.2 5C15.896 5 16.564 5.30899 17 5.79727C17.436 5.30899 18.104 5 18.8 5C20.032 5 21 5.92316 21 7.09809C21 8.54008 19.64 9.71498 17.58 11.5003L17 12Z"
          stroke="white" stroke-width="1.5" stroke-linecap="round" stroke-linejoin="round"/>
</svg>
