<svg width="24" height="24" viewBox="0 0 24 24" fill="none" xmlns="http://www.w3.org/2000/svg">
    <path d="M12 4H7C5.89543 4 5 4.89543 5 6V18.9941C5 19.8192 5.94295 20.2893 6.60189 19.7927L11.3981 16.1778C11.7544 15.9092 12.2456 15.9092 12.6019 16.1778L17.3981 19.7927C18.057 20.2893 19 19.8192 19 18.9941V14M22 12C21.271 11.271 19.3058 9.30577 19.3058 9.30577M20.2161 7.10805C20.2161 8.82457 18.8246 10.2161 17.108 10.2161C15.3915 10.2161 14 8.82457 14 7.10805C14 5.39152 15.3915 4 17.108 4C18.8246 4 20.2161 5.39152 20.2161 7.10805Z"
          stroke="white" stroke-width="1.5" stroke-linecap="round" stroke-linejoin="round"/>
</svg>
