<svg width="24" height="24" viewBox="0 0 24 24" fill="none" xmlns="http://www.w3.org/2000/svg">
    <path d="M16 10.7283L8 6.00378M4.57143 8.95661L10.9163 12.4875C11.5929 12.864 12.4071 12.864 13.0837 12.4875L19.4286 8.95661M12 12.7699V20.768M13.1341 4.31124L18.8483 7.6859C19.5605 8.10649 20 8.88921 20 9.73692V15.2631C20 16.1108 19.5605 16.8935 18.8483 17.3141L13.1341 20.6887C12.4313 21.1038 11.5687 21.1038 10.866 20.6887L5.15168 17.3141C4.43951 16.8935 4 16.1108 4 15.2631V9.73692C4 8.88921 4.43951 8.10649 5.15168 7.6859L10.866 4.31124C11.5687 3.89625 12.4313 3.89625 13.1341 4.31124Z"
          stroke="white" stroke-width="1.5" stroke-linecap="round" stroke-linejoin="round"/>
</svg>
