<svg width="24" height="24" viewBox="0 0 24 24" fill="none" xmlns="http://www.w3.org/2000/svg">
    <path d="M10 21H14M12 18H13.1562C13.7085 18 14.1562 17.5523 14.1562 17V15.917C14.1562 15.5556 14.3513 15.2222 14.6664 15.0452L14.9977 14.8591C16.4888 14.0231 17.5311 12.6183 17.8758 11M21 4L17.5034 7.49658M17.5034 7.49658C16.579 5.43856 14.463 4 12 4C8.68594 4 6 6.60454 6 9.81818C6 11.9204 7.15781 13.825 9.00234 14.8591L9.33357 15.0452C9.46527 15.1192 9.576 15.2205 9.66029 15.3397M17.5034 7.49658L9.66029 15.3397M5 20L9.66029 15.3397"
          stroke="white" stroke-width="1.5" stroke-linecap="round" stroke-linejoin="round"/>
</svg>
