<svg width="24" height="24" viewBox="0 0 24 24" fill="none" xmlns="http://www.w3.org/2000/svg">
    <path d="M10 21H14" stroke="white" stroke-width="1.5" stroke-linecap="round" stroke-linejoin="round"/>
    <path d="M14.9977 14.8591L14.6664 15.0452C14.3513 15.2222 14.1562 15.5556 14.1562 15.917V17C14.1562 17.5523 13.7085 18 13.1562 18H10.8437C10.2915 18 9.84375 17.5523 9.84375 17V15.917C9.84375 15.5556 9.64869 15.2222 9.33357 15.0452L9.00234 14.8591C7.15781 13.825 6 11.9204 6 9.81818C6 6.60454 8.68594 4 12 4C15.3141 4 18 6.60454 18 9.81818C18 11.9204 16.8422 13.825 14.9977 14.8591Z"
          stroke="white" stroke-width="1.5"/>
</svg>
