<svg width="24" height="24" viewBox="0 0 24 24" fill="none" xmlns="http://www.w3.org/2000/svg">
    <path d="M10 7C10 8.65685 8.65685 10 7 10C5.34315 10 4 8.65685 4 7C4 5.34315 5.34315 4 7 4C8.65685 4 10 5.34315 10 7ZM10 7C10 8.65685 11.3431 10 13 10C14.6569 10 16 8.65685 16 7C16 5.34315 14.6569 4 13 4C11.3431 4 10 5.34315 10 7ZM18 12.25V11.5C18 10.6716 17.3284 10 16.5 10H3.5C2.67157 10 2 10.6716 2 11.5V17.5C2 18.3284 2.67157 19 3.5 19H16.5C17.3284 19 18 18.3284 18 17.5V16.75M18 12.25L20.5097 10.8383C21.1763 10.4633 22 10.945 22 11.7098V17.2902C22 18.055 21.1763 18.5367 20.5097 18.1617L18 16.75M18 12.25V16.75M6 16H14C14.5523 16 15 15.5523 15 15V14C15 13.4477 14.5523 13 14 13H6C5.44772 13 5 13.4477 5 14V15C5 15.5523 5.44772 16 6 16Z"
          stroke="white" stroke-width="1.5" stroke-linejoin="round"/>
</svg>
