<svg width="24" height="24" viewBox="0 0 24 24" fill="none" xmlns="http://www.w3.org/2000/svg">
    <path d="M21 16V10.1286C21 8.6374 19.7912 7.42857 18.3 7.42857H18.2143C17.2675 7.42857 16.5 6.66106 16.5 5.71429C16.5 4.76751 15.7325 4 14.7857 4H9.21429C8.26751 4 7.5 4.76751 7.5 5.71429C7.5 6.66106 6.73249 7.42857 5.78571 7.42857H5.7C4.20883 7.42857 3 8.6374 3 10.1286V16C3 17.6569 4.34315 19 6 19H18C19.6569 19 21 17.6569 21 16Z"
          stroke="white" stroke-width="1.5" stroke-linejoin="round"/>
    <path d="M12 15C13.6569 15 15 13.6569 15 12C15 10.3431 13.6569 9 12 9C10.3431 9 9 10.3431 9 12C9 13.6569 10.3431 15 12 15Z" stroke="white"
          stroke-width="1.5" stroke-linejoin="round"/>
</svg>
