<svg width="24" height="24" viewBox="0 0 24 24" fill="none" xmlns="http://www.w3.org/2000/svg">
    <path d="M6.6 18C4.61177 18 3 16.2091 3 14C3 11.7909 4.61177 10 6.6 10C6.702 10 6.803 10.0047 6.90285 10.014C7.6406 7.67628 9.64412 6 12 6C14.3559 6 16.3594 7.67628 17.0972 10.014C17.197 10.0047 17.298 10 17.4 10C19.3882 10 21 11.7909 21 14C21 16.2091 19.3882 18 17.4 18M12 20L11.42 19.4964C9.36 17.715 8 16.5401 8 15.0981C8 13.9232 8.968 13 10.2 13C10.896 13 11.564 13.309 12 13.7973C12.436 13.309 13.104 13 13.8 13C15.032 13 16 13.9232 16 15.0981C16 16.5401 14.64 17.715 12.58 19.5003L12 20Z"
          stroke="white" stroke-width="1.5" stroke-linecap="round" stroke-linejoin="round"/>
</svg>
