<svg width="24" height="24" viewBox="0 0 24 24" fill="none" xmlns="http://www.w3.org/2000/svg">
    <path d="M6.6 18C4.61177 18 3 16.2091 3 14C3 11.7909 4.61177 10 6.6 10C6.702 10 6.803 10.0047 6.90285 10.014C7.6406 7.67628 9.64412 6 12 6C14.3559 6 16.3594 7.67628 17.0972 10.014C17.197 10.0047 17.298 10 17.4 10C19.3882 10 21 11.7909 21 14C21 15.982 19.7026 17.6273 18 17.9447M17 20C16.271 19.271 14.3058 17.3058 14.3058 17.3058M15.2161 15.108C15.2161 16.8246 13.8246 18.2161 12.108 18.2161C10.3915 18.2161 9 16.8246 9 15.108C9 13.3915 10.3915 12 12.108 12C13.8246 12 15.2161 13.3915 15.2161 15.108Z"
          stroke="white" stroke-width="1.5" stroke-linecap="round" stroke-linejoin="round"/>
</svg>
