<svg width="24" height="24" viewBox="0 0 24 24" fill="none" xmlns="http://www.w3.org/2000/svg">
    <path d="M6.28571 8.57143C7.54808 8.57143 8.57143 7.54808 8.57143 6.28571C8.57143 5.02335 7.54808 4 6.28571 4C5.02335 4 4 5.02335 4 6.28571C4 7.54808 5.02335 8.57143 6.28571 8.57143ZM6.28571 8.57143V15.4286M6.28571 15.4286L8.37535 13.339C9.23265 12.4816 10.3954 12 11.6079 12H14.2857C16.1793 12 17.7143 10.465 17.7143 8.57143M6.28571 15.4286C5.02335 15.4286 4 16.4519 4 17.7143C4 18.9767 5.02335 20 6.28571 20C7.54808 20 8.57143 18.9767 8.57143 17.7143C8.57143 16.4519 7.54808 15.4286 6.28571 15.4286ZM17.7143 8.57143C18.9767 8.57143 20 7.54808 20 6.28571C20 5.02335 18.9767 4 17.7143 4C16.4519 4 15.4286 5.02335 15.4286 6.28571C15.4286 7.54808 16.4519 8.57143 17.7143 8.57143Z"
          stroke="white" stroke-width="1.5"/>
</svg>
