<svg width="24" height="24" viewBox="0 0 24 24" fill="none" xmlns="http://www.w3.org/2000/svg">
    <path d="M14.2222 6.28571C14.2222 7.54808 13.2273 8.57143 12 8.57143C10.7727 8.57143 9.77778 7.54808 9.77778 6.28571C9.77778 5.02335 10.7727 4 12 4C13.2273 4 14.2222 5.02335 14.2222 6.28571ZM14.2222 6.28571H16.4444C18.2854 6.28571 19.7778 7.82074 19.7778 9.71429V17.7143M19.7778 17.7143L17.5556 15.4286M19.7778 17.7143L22 15.4286M9.77778 17.7143C9.77778 18.9767 10.7727 20 12 20C13.2273 20 14.2222 18.9767 14.2222 17.7143C14.2222 16.4519 13.2273 15.4286 12 15.4286C10.7727 15.4286 9.77778 16.4519 9.77778 17.7143ZM9.77778 17.7143H7.55556C5.71461 17.7143 4.22222 16.1793 4.22222 14.2857V6.28571M4.22222 6.28571L6.44444 8.57143M4.22222 6.28571L2 8.57143"
          stroke="white" stroke-width="1.5" stroke-linecap="round" stroke-linejoin="round"/>
</svg>
