<svg width="24" height="24" viewBox="0 0 24 24" fill="none" xmlns="http://www.w3.org/2000/svg">
    <path d="M8 12C8 13.1046 7.10457 14 6 14C4.89543 14 4 13.1046 4 12C4 10.8954 4.89543 10 6 10C7.10457 10 8 10.8954 8 12ZM8 12H11M11 12V10C11 8.34315 12.3431 7 14 7H16M11 12V14C11 15.6569 12.3431 17 14 17H16M16 7C16 8.10457 16.8954 9 18 9C19.1046 9 20 8.10457 20 7C20 5.89543 19.1046 5 18 5C16.8954 5 16 5.89543 16 7ZM16 17C16 18.1046 16.8954 19 18 19C19.1046 19 20 18.1046 20 17C20 15.8954 19.1046 15 18 15C16.8954 15 16 15.8954 16 17Z"
          stroke="white" stroke-width="1.5" stroke-linejoin="round"/>
</svg>
