<svg width="24" height="24" viewBox="0 0 24 24" fill="none" xmlns="http://www.w3.org/2000/svg">
    <path d="M20 6.75C20 8.26878 18.7688 9.5 17.25 9.5H6.75C5.23122 9.5 4 8.26878 4 6.75C4 5.23122 5.23122 4 6.75 4C8.26878 4 9.5 5.23122 9.5 6.75V17.25C9.5 18.7688 8.26878 20 6.75 20C5.23122 20 4 18.7688 4 17.25C4 15.7312 5.23122 14.5 6.75 14.5H17.25C18.7688 14.5 20 15.7312 20 17.25C20 18.7688 18.7688 20 17.25 20C15.7312 20 14.5 18.7688 14.5 17.25V6.75C14.5 5.23122 15.7312 4 17.25 4C18.7688 4 20 5.23122 20 6.75Z"
          stroke="white" stroke-width="1.5"/>
</svg>
