<svg width="24" height="24" viewBox="0 0 24 24" fill="none" xmlns="http://www.w3.org/2000/svg">
    <path d="M8.55556 7.86668L15.4444 7.86667M8.55556 7.86668L5.77778 7.86669M8.55556 7.86668V6C8.55556 4.89543 9.45099 4 10.5556 4H13.4444C14.549 4 15.4444 4.89543 15.4444 6V7.86667M15.4444 7.86667H18.2222M5.77778 7.86669L6.53085 18.1461C6.60741 19.1912 7.47763 20 8.52551 20H12M5.77778 7.86669L18.2222 7.86667M5.77778 7.86669H4M18.2222 7.86667H20M18.2222 7.86667L18.0659 10M20 20C19.271 19.271 17.3058 17.3058 17.3058 17.3058M18.2161 15.108C18.2161 16.8246 16.8246 18.2161 15.108 18.2161C13.3915 18.2161 12 16.8246 12 15.108C12 13.3915 13.3915 12 15.108 12C16.8246 12 18.2161 13.3915 18.2161 15.108Z"
          stroke="white" stroke-width="1.5" stroke-linecap="round" stroke-linejoin="round"/>
</svg>
