<svg width="24" height="24" viewBox="0 0 24 24" fill="none" xmlns="http://www.w3.org/2000/svg">
    <path d="M8.55556 7.86668L15.4444 7.86667M8.55556 7.86668L5.77778 7.86669M8.55556 7.86668V6C8.55556 4.89543 9.45099 4 10.5556 4H13.4444C14.549 4 15.4444 4.89543 15.4444 6V7.86667M15.4444 7.86667H18.2222M5.77778 7.86669L6.53085 18.1461C6.60741 19.1912 7.47763 20 8.52551 20H12M5.77778 7.86669L18.2222 7.86667M5.77778 7.86669H4M18.2222 7.86667H20M18.2222 7.86667L18.0659 10M16 20L15.42 19.4964C13.36 17.715 12 16.5401 12 15.0981C12 13.9232 12.968 13 14.2 13C14.896 13 15.564 13.309 16 13.7973C16.436 13.309 17.104 13 17.8 13C19.032 13 20 13.9232 20 15.0981C20 16.5401 18.64 17.715 16.58 19.5003L16 20Z"
          stroke="white" stroke-width="1.5" stroke-linecap="round" stroke-linejoin="round"/>
</svg>
