<svg width="24" height="24" viewBox="0 0 24 24" fill="none" xmlns="http://www.w3.org/2000/svg">
    <path d="M6 13.3335C6 13.8377 6.4125 14.2502 6.91667 14.2502H10.4361C11.0701 14.2502 11.5441 14.8326 11.4153 15.4534L11.06 17.1652L11.0417 17.376C11.0417 17.6602 11.1608 17.9168 11.3442 18.1093L11.3612 18.1264C11.7518 18.5169 12.3849 18.5169 12.7754 18.1264L16.5967 14.3052C16.8442 14.0577 17 13.7093 17 13.3335V7.37516C17 6.61433 16.3858 6.00016 15.625 6.00016H9.4375C8.86917 6.00016 8.38333 6.3485 8.1725 6.83433L6.10083 11.6835C6.03667 11.8393 6 12.0135 6 12.1877V13.3335Z"
          stroke="white" stroke-width="1.5" stroke-linejoin="round"/>
</svg>
