<svg width="24" height="24" viewBox="0 0 24 24" fill="none" xmlns="http://www.w3.org/2000/svg">
    <path d="M20 11C20 6.02945 15.9705 2 11 2C6.02944 2 2 6.02945 2 11C2 15.9705 6.02944 20 11 20M11 7.14286C9.5798 7.14286 8.42857 8.29412 8.42857 9.7143C8.42857 10.6661 8.94568 11.4971 9.7143 11.9417V13.5714C9.7143 14.2815 10.2899 14.8571 11 14.8571C11.7101 14.8571 12.2857 14.2815 12.2857 13.5714V11.9417C13.0543 11.4971 13.5714 10.6661 13.5714 9.7143C13.5714 8.29412 12.4202 7.14286 11 7.14286ZM18 22L17.42 21.4964C15.36 19.715 14 18.5401 14 17.0981C14 15.9232 14.968 15 16.2 15C16.896 15 17.564 15.309 18 15.7973C18.436 15.309 19.104 15 19.8 15C21.032 15 22 15.9232 22 17.0981C22 18.5401 20.64 19.715 18.58 21.5003L18 22Z"
          stroke="white" stroke-width="1.5" stroke-linecap="round" stroke-linejoin="round"/>
</svg>
