<svg width="24" height="24" viewBox="0 0 24 24" fill="none" xmlns="http://www.w3.org/2000/svg">
    <path d="M12 21C16.9705 21 21 16.9705 21 12C21 7.02945 16.9705 3 12 3C7.02944 3 3 7.02945 3 12C3 16.9705 7.02944 21 12 21Z" stroke="white"
          stroke-width="1.5" stroke-linejoin="round"/>
    <path d="M12.0001 8.14282C10.5799 8.14282 9.42871 9.29408 9.42871 10.7143C9.42871 11.6661 9.94582 12.4971 10.7144 12.9417V14.5714C10.7144 15.2815 11.29 15.8571 12.0001 15.8571C12.7102 15.8571 13.2858 15.2815 13.2858 14.5714V12.9417C14.0544 12.4971 14.5715 11.6661 14.5715 10.7143C14.5715 9.29408 13.4203 8.14282 12.0001 8.14282Z"
          stroke="white" stroke-width="1.5" stroke-linejoin="round"/>
</svg>
