<svg width="24" height="24" viewBox="0 0 24 24" fill="none" xmlns="http://www.w3.org/2000/svg">
    <path d="M21 12C21 7.02945 16.9705 3 12 3C7.02944 3 3 7.02945 3 12C3 16.9705 7.02944 21 12 21M18 15V18M18 18V21M18 18H21M18 18H15M12 8.14286C10.5798 8.14286 9.42857 9.29412 9.42857 10.7143C9.42857 11.6661 9.94568 12.4971 10.7143 12.9417V14.5714C10.7143 15.2815 11.2899 15.8571 12 15.8571C12.7101 15.8571 13.2857 15.2815 13.2857 14.5714V12.9417C14.0543 12.4971 14.5714 11.6661 14.5714 10.7143C14.5714 9.29412 13.4202 8.14286 12 8.14286Z"
          stroke="white" stroke-width="1.5" stroke-linecap="round" stroke-linejoin="round"/>
</svg>
