<svg width="24" height="24" viewBox="0 0 24 24" fill="none" xmlns="http://www.w3.org/2000/svg">
    <path d="M20 12C20 7.02945 15.9705 3 11 3C6.02944 3 2 7.02945 2 12C2 16.9705 6.02944 21 11 21M14 17.5997L16.5714 19.9997L22 15M11 8.14286C9.5798 8.14286 8.42857 9.29412 8.42857 10.7143C8.42857 11.6661 8.94568 12.4971 9.7143 12.9417V14.5714C9.7143 15.2815 10.2899 15.8571 11 15.8571C11.7101 15.8571 12.2857 15.2815 12.2857 14.5714V12.9417C13.0543 12.4971 13.5714 11.6661 13.5714 10.7143C13.5714 9.29412 12.4202 8.14286 11 8.14286Z"
          stroke="white" stroke-width="1.5" stroke-linecap="round" stroke-linejoin="round"/>
</svg>
