<svg width="24" height="24" viewBox="0 0 24 24" fill="none" xmlns="http://www.w3.org/2000/svg">
    <path d="M15.6 12C15.6 13.9882 13.9882 15.6 12 15.6C10.0118 15.6 8.4 13.9882 8.4 12C8.4 10.0118 10.0118 8.4 12 8.4C13.9882 8.4 15.6 10.0118 15.6 12ZM15.6 12V8.4M15.6 12C15.6 13.9882 17.2118 15.6 19.2 15.6C19.9278 15.6 20.506 15.0373 20.6943 14.3344C20.8937 13.5899 21 12.8074 21 12C21 7.02944 16.9706 3 12 3C7.02944 3 3 7.02944 3 12C3 16.9706 7.02944 21 12 21C13.6393 21 15.1762 20.5617 16.5 19.796"
          stroke="white" stroke-width="1.5" stroke-linecap="round" stroke-linejoin="round"/>
</svg>
