<svg width="24" height="24" viewBox="0 0 24 24" fill="none" xmlns="http://www.w3.org/2000/svg">
    <path d="M18.8366 8.3296C20.119 9.31079 21.1991 10.561 22 12.0001C20.0039 15.5869 16.2731 18.0001 12 18.0001C10.9623 18.0001 9.95664 17.8578 9 17.5909M20.0001 4L16.8789 7.12114M16.8789 7.12114L14.1213 9.87869M16.8789 7.12114C15.3969 6.40179 13.7436 6.00001 12 6.00001C7.72693 6.00001 3.99609 8.4132 2 12C3.18161 14.1233 4.97111 15.8353 7.12114 16.8789M16.8789 7.12114L7.12114 16.8789M14.1213 9.87869L9.87868 14.1213M14.1213 9.87869C13.5784 9.3358 12.8284 9.00001 12 9.00001C10.3431 9.00001 9 10.3431 9 12C9 12.8284 9.33579 13.5784 9.87868 14.1213M7.12114 16.8789L9.87868 14.1213M7.12114 16.8789L4.00005 20"
          stroke="white" stroke-width="1.5" stroke-linecap="round" stroke-linejoin="round"/>
</svg>
