<svg width="24" height="24" viewBox="0 0 24 24" fill="none" xmlns="http://www.w3.org/2000/svg">
    <path fill-rule="evenodd" clip-rule="evenodd"
          d="M19 5C19 4.44772 18.5523 4 18 4H6C5.4477 4 5 4.44772 5 5V8C5 8.26522 5.1054 8.51957 5.2929 8.70711L9.41421 12.8284C9.78929 13.2035 10 13.7122 10 14.2426V17C10 17.2652 10.1054 17.5196 10.2929 17.7071L12.2929 19.7071C12.5789 19.9931 13.009 20.0787 13.3827 19.9239C13.7564 19.7691 14 19.4045 14 19V14.2426C14 13.7122 14.2107 13.2035 14.5858 12.8284L18.7071 8.70711C18.8946 8.51957 19 8.26522 19 8V5Z"
          stroke="white" stroke-width="1.5" stroke-linejoin="round"/>
</svg>
