<svg width="24" height="24" viewBox="0 0 24 24" fill="none" xmlns="http://www.w3.org/2000/svg">
    <path d="M20 19C19.271 18.271 17.3058 16.3058 17.3058 16.3058M11 19H5.6C4.72 19 4 18.2125 4 17.25L4.008 6.75C4.008 5.7875 4.72 5 5.6 5H9.95933C10.2401 5 10.5079 5.11802 10.6974 5.32523L11.7026 6.42477C11.8921 6.63198 12.1599 6.75 12.4407 6.75H18.4C19.28 6.75 20 7.5375 20 8.5V10M18.2161 14.108C18.2161 15.8246 16.8246 17.2161 15.108 17.2161C13.3915 17.2161 12 15.8246 12 14.108C12 12.3915 13.3915 11 15.108 11C16.8246 11 18.2161 12.3915 18.2161 14.108Z"
          stroke="white" stroke-width="1.5" stroke-linecap="round" stroke-linejoin="round"/>
</svg>
