<svg width="24" height="24" viewBox="0 0 24 24" fill="none" xmlns="http://www.w3.org/2000/svg">
    <path d="M11 19H5.6C4.72 19 4 18.2125 4 17.25L4.008 6.75C4.008 5.7875 4.72 5 5.6 5H9.95933C10.2401 5 10.5079 5.11802 10.6974 5.32523L11.7026 6.42477C11.8921 6.63198 12.1599 6.75 12.4407 6.75H18.4C19.28 6.75 20 7.5375 20 8.5V10M16 19L15.42 18.4964C13.36 16.715 12 15.5401 12 14.0981C12 12.9232 12.968 12 14.2 12C14.896 12 15.564 12.309 16 12.7973C16.436 12.309 17.104 12 17.8 12C19.032 12 20 12.9232 20 14.0981C20 15.5401 18.64 16.715 16.58 18.5003L16 19Z"
          stroke="white" stroke-width="1.5" stroke-linecap="round" stroke-linejoin="round"/>
</svg>
