<svg width="24" height="24" viewBox="0 0 24 24" fill="none" xmlns="http://www.w3.org/2000/svg">
    <path d="M7.9304 16.041C7.002 15.105 6.16375 14.124 5.41562 13.098C4.67651 12.072 4.08162 11.046 3.64897 10.029C3.21632 9.003 3 8.022 3 7.086C3 6.474 3.10816 5.889 3.32449 5.349C3.54081 4.8 3.88333 4.296 4.36104 3.846C4.93791 3.279 5.56885 3 6.23585 3C6.48823 3 6.74061 3.054 6.96595 3.162C7.2003 3.27 7.40761 3.432 7.56986 3.666L9.66099 6.609C9.82324 6.834 9.94041 7.041 10.0215 7.239C10.1027 7.428 10.1477 7.617 10.1477 7.788C10.1477 8.004 10.0846 8.22 9.95844 8.427C9.84126 8.634 9.67001 8.85 9.45368 9.066L8.76865 9.777C8.6695 9.876 8.62444 9.993 8.62444 10.137C8.62444 10.209 8.63345 10.272 8.65148 10.344C8.67852 10.416 8.70556 10.47 8.72359 10.524C8.88583 10.821 9.16525 11.208 9.56184 11.676C9.96745 12.144 10.4001 12.621 10.8688 13.098M4 20L20 3.99996M12 19.3085C12.6609 19.716 13.3242 20.0608 13.9875 20.343C15.024 20.784 16.0065 21 16.9259 21C17.5568 21 18.1427 20.883 18.6835 20.658C19.2334 20.433 19.7201 20.082 20.1617 19.596C20.4231 19.308 20.6214 19.002 20.7747 18.678C20.9279 18.354 21 18.021 21 17.697C21 17.445 20.9459 17.22 20.8558 16.995C20.7566 16.77 20.5944 16.581 20.36 16.419L17.3766 14.304C17.1512 14.151 16.9439 14.034 16.7456 13.953C16.5473 13.872 16.3671 13.836 16.1958 13.836C15.9705 13.836 15.7631 13.899 15.5558 14.025C15.3485 14.133 15.1322 14.304 14.9069 14.529L14.2218 15.204C14.1227 15.303 14.0055 15.357 13.8523 15.357C13.7712 15.357 13.699 15.348 13.6269 15.321C13.5638 15.294 13.5098 15.267 13.4647 15.249C13.3263 15.1759 13.1714 15.0807 13 14.9619"
          stroke="white" stroke-width="1.5" stroke-linecap="round" stroke-linejoin="round"/>
</svg>
