<svg width="24" height="24" viewBox="0 0 24 24" fill="none" xmlns="http://www.w3.org/2000/svg">
    <path d="M13 17L11 19L9.87415 17.9836C5.73312 14.4258 3 12.0777 3 9.19619C3 6.84632 4.94874 5 7.42895 5C8.8301 5 10.1749 5.61799 11.0526 6.59455C11.9304 5.61799 13.2752 5 14.6763 5C16.7163 5 18.3967 6.24905 18.929 8M21 18C20.271 17.271 18.3058 15.3058 18.3058 15.3058M19.2161 13.108C19.2161 14.8246 17.8246 16.2161 16.108 16.2161C14.3915 16.2161 13 14.8246 13 13.108C13 11.3915 14.3915 10 16.108 10C17.8246 10 19.2161 11.3915 19.2161 13.108Z"
          stroke="white" stroke-width="1.5" stroke-linecap="round" stroke-linejoin="round"/>
</svg>
