<svg width="24" height="24" viewBox="0 0 24 24" fill="none" xmlns="http://www.w3.org/2000/svg">
    <path d="M8.53846 22H5C4.44771 22 4 21.5436 4 20.9806V10.6203C4 10.3361 4.11634 10.0649 4.32096 9.8719L11.321 3.27107C11.7042 2.90964 12.2958 2.90964 12.679 3.27107L19.679 9.8719C19.8837 10.0649 20 10.3361 20 10.6203V20.9806C20 21.5436 19.5523 22 19 22H15.4615C14.9093 22 14.4615 21.5436 14.4615 20.9806V16C14.4615 15.437 14.0138 14.9806 13.4615 14.9806H10.5385C9.98618 14.9806 9.53846 15.437 9.53846 16V20.9806C9.53846 21.5436 9.09075 22 8.53846 22Z"
          stroke="white" stroke-width="1.5"/>
</svg>
