<svg width="24" height="24" viewBox="0 0 24 24" fill="none" xmlns="http://www.w3.org/2000/svg">
    <path d="M18 15V20.9806C18 21.5436 17.5523 22 17 22H13.4615C12.9093 22 12.4615 21.5436 12.4615 20.9806V16.0194C12.4615 15.4564 12.0138 15 11.4615 15H8.5385C7.98618 15 7.53846 15.4564 7.53846 16.0194V20.9806C7.53846 21.5436 7.09075 22 6.53846 22H3C2.44771 22 2 21.5436 2 20.9806V10.6203C2 10.3361 2.11634 10.0649 2.32096 9.8719L9.321 3.27107C9.7042 2.90964 10.2958 2.90964 10.679 3.27107L12.4079 5M14 9.5H22"
          stroke="white" stroke-width="1.5" stroke-linecap="round" stroke-linejoin="round"/>
</svg>
