<svg width="24" height="24" viewBox="0 0 24 24" fill="none" xmlns="http://www.w3.org/2000/svg">
    <path d="M19 14.5V19.9806C19 20.5436 18.5523 21 18 21H14.4615C13.9093 21 13.4615 20.5436 13.4615 19.9806V15.0194C13.4615 14.4564 13.0138 14 12.4615 14H9.5385C8.98618 14 8.53846 14.4564 8.53846 15.0194V19.9806C8.53846 20.5436 8.09075 21 7.53846 21H4C3.44771 21 3 20.5436 3 19.9806V9.6203C3 9.3361 3.11634 9.0649 3.32096 8.8719L10.321 2.27107C10.7042 1.90964 11.2958 1.90964 11.679 2.27107L14 4.59207M22.0001 6L19.2459 8.82847M19.2459 8.82847L16.4917 11.6569M19.2459 8.82847L22.0001 11.6569M19.2459 8.82847L16.4917 6"
          stroke="white" stroke-width="1.5" stroke-linecap="round" stroke-linejoin="round"/>
</svg>
