<svg width="24" height="24" viewBox="0 0 24 24" fill="none" xmlns="http://www.w3.org/2000/svg">
    <path d="M4.75 6C4.75 5.30964 5.30964 4.75 6 4.75V3.25C4.48122 3.25 3.25 4.48122 3.25 6H4.75ZM6 4.75H8.44444V3.25H6V4.75ZM8.44444 4.75H18V3.25H8.44444V4.75ZM18 4.75C18.6904 4.75 19.25 5.30964 19.25 6H20.75C20.75 4.48122 19.5188 3.25 18 3.25V4.75ZM19.25 6V8.44444H20.75V6H19.25ZM19.25 8.44444V18H20.75V8.44444H19.25ZM19.25 18C19.25 18.6904 18.6904 19.25 18 19.25V20.75C19.5188 20.75 20.75 19.5188 20.75 18H19.25ZM18 19.25H8.44444V20.75H18V19.25ZM8.44444 19.25H6V20.75H8.44444V19.25ZM6 19.25C5.30964 19.25 4.75 18.6904 4.75 18H3.25C3.25 19.5188 4.48122 20.75 6 20.75V19.25ZM4.75 18V6H3.25V18H4.75ZM7.69444 4.00002L7.69458 8.44446L9.19458 8.44442L9.19444 3.99998L7.69444 4.00002ZM9.19444 20L9.19458 8.44445L7.69458 8.44443L7.69444 20L9.19444 20ZM8.44458 9.19444H20V7.69444H8.44458V9.19444Z"
          fill="white"/>
</svg>
