<svg width="24" height="24" viewBox="0 0 24 24" fill="none" xmlns="http://www.w3.org/2000/svg">
    <path d="M17 11.5C17 10.9958 16.5875 10.5833 16.0833 10.5833H12.5639C11.9299 10.5833 11.4559 10.0009 11.5847 9.38012L11.94 7.66833L11.9583 7.4575C11.9583 7.17333 11.8392 6.91667 11.6558 6.72417L11.6388 6.70711C11.2482 6.31658 10.6151 6.31658 10.2246 6.70711L6.40333 10.5283C6.15583 10.7758 6 11.1242 6 11.5V17.4583C6 18.2192 6.61417 18.8333 7.375 18.8333H13.5625C14.1308 18.8333 14.6167 18.485 14.8275 17.9992L16.8992 13.15C16.9633 12.9942 17 12.82 17 12.6458V11.5Z"
          stroke="white" stroke-width="1.5" stroke-linejoin="round"/>
</svg>
