<svg width="24" height="24" viewBox="0 0 24 24" fill="none" xmlns="http://www.w3.org/2000/svg">
    <path fill-rule="evenodd" clip-rule="evenodd"
          d="M7.99165 9.96967C8.28455 10.2626 8.28455 10.7374 7.99165 11.0303L5.74851 13.2735C4.51157 14.5104 4.51157 16.5159 5.74851 17.7528C6.98545 18.9898 8.99093 18.9898 10.2279 17.7528L12.4709 15.5098C12.7638 15.2169 13.2387 15.2169 13.5316 15.5098C13.8245 15.8027 13.8245 16.2776 13.5316 16.5705L11.2885 18.8135C9.4658 20.6362 6.51057 20.6362 4.68785 18.8135C2.86512 16.9908 2.86512 14.0355 4.68785 12.2128L6.93099 9.96967C7.22389 9.67678 7.69876 9.67678 7.99165 9.96967Z"
          fill="white"/>
    <path d="M10.4732 7.4868L13.2432 4.71679C14.773 3.18695 17.2534 3.18695 18.7832 4.71679V4.71679C20.313 6.24662 20.313 8.72698 18.7832 10.2568L16.0132 13.0268"
          stroke="white" stroke-width="1.5" stroke-linecap="round" stroke-linejoin="round"/>
    <path d="M14 9.5L9.5 14" stroke="white" stroke-width="1.5" stroke-linecap="round" stroke-linejoin="round"/>
</svg>
