<svg width="24" height="24" viewBox="0 0 24 24" fill="none" xmlns="http://www.w3.org/2000/svg">
    <path d="M2 6.625C2 5.72754 2.73263 5 3.63636 5H18.3636C19.2674 5 20 5.72754 20 6.625M2 6.625V16.375C2 17.2725 2.73263 18 3.63636 18H11M2 6.625L9.2659 11.7717C10.3049 12.5076 11.6951 12.5076 12.7341 11.7717L20 6.625M20 6.625V11.5M22 21C21.271 20.271 19.3058 18.3058 19.3058 18.3058M20.2161 16.108C20.2161 17.8246 18.8246 19.2161 17.108 19.2161C15.3915 19.2161 14 17.8246 14 16.108C14 14.3915 15.3915 13 17.108 13C18.8246 13 20.2161 14.3915 20.2161 16.108Z"
          stroke="white" stroke-width="1.5" stroke-linecap="round" stroke-linejoin="round"/>
</svg>
