<svg width="24" height="24" viewBox="0 0 24 24" fill="none" xmlns="http://www.w3.org/2000/svg">
    <path d="M2 6.625C2 5.72754 2.73263 5 3.63636 5H18.3636C19.2674 5 20 5.72754 20 6.625M2 6.625V16.375C2 17.2725 2.73263 18 3.63636 18H11M2 6.625L9.2659 11.7717C10.3049 12.5076 11.6951 12.5076 12.7341 11.7717L20 6.625M20 6.625V11.5M18 21L17.42 20.4964C15.36 18.715 14 17.5401 14 16.0981C14 14.9232 14.968 14 16.2 14C16.896 14 17.564 14.309 18 14.7973C18.436 14.309 19.104 14 19.8 14C21.032 14 22 14.9232 22 16.0981C22 17.5401 20.64 18.715 18.58 20.5003L18 21Z"
          stroke="white" stroke-width="1.5" stroke-linecap="round" stroke-linejoin="round"/>
</svg>
