<svg width="24" height="24" viewBox="0 0 24 24" fill="none" xmlns="http://www.w3.org/2000/svg">
    <path d="M13 3H7C5.89543 3 5 3.89543 5 5V19C5 20.1046 5.89543 21 7 21H17C18.1046 21 19 20.1046 19 19V9M13 3V8C13 8.55228 13.4477 9 14 9H19M13 3L19 9M9 17L9.93474 12.9495C10.0518 12.4422 10.7694 12.4292 10.9047 12.9319L11.5172 15.2067C11.65 15.7001 12.35 15.7001 12.4828 15.2067L13.0953 12.9319C13.2306 12.4292 13.9482 12.4422 14.0653 12.9495L15 17"
          stroke="white" stroke-width="1.5" stroke-linecap="round" stroke-linejoin="round"/>
</svg>
