<svg width="24" height="24" viewBox="0 0 24 24" fill="none" xmlns="http://www.w3.org/2000/svg">
    <path d="M9 19H18C19.6569 19 21 17.6569 21 16V10.1286C21 9.28169 20.6101 8.52586 20 8.03083M4 20L5.12853 18.8715M5.12853 18.8715C3.89669 18.4981 3 17.3538 3 16V10.1286C3 8.6374 4.20883 7.42857 5.7 7.42857H5.78571C6.73249 7.42857 7.5 6.66106 7.5 5.71429C7.5 4.76751 8.26751 4 9.21429 4H14.7857C15.7325 4 16.5 4.76751 16.5 5.71429C16.5 6.20584 16.7069 6.64908 17.0383 6.96166M5.12853 18.8715L9.87866 14.1213M17.0383 6.96166L20 4M17.0383 6.96166L14.1213 9.87866M9.87866 14.1213C9.33577 13.5785 9 12.8285 9 12C9 10.3431 10.3431 9 12 9C12.8285 9 13.5785 9.33578 14.1213 9.87866M9.87866 14.1213L14.1213 9.87866"
          stroke="white" stroke-width="1.5" stroke-linecap="round" stroke-linejoin="round"/>
</svg>
