<svg width="24" height="24" viewBox="0 0 24 24" fill="none" xmlns="http://www.w3.org/2000/svg">
    <path d="M3 17.25L3.00808 6.75C3.00808 5.7875 3.72711 5 4.6158 5H9.01817C9.30171 5 9.57215 5.11802 9.76353 5.32523L10.7786 6.42477C10.97 6.63198 11.2405 6.75 11.524 6.75H17.5422C18.4309 6.75 19.158 7.5375 19.158 8.5V11M3 17.25L5.47966 12.1345C5.8158 11.4411 6.52374 11 7.30051 11H18.9777C20.465 11 21.4422 12.5378 20.7986 13.8655L19.158 17.25C19.158 17.25 18.4309 19 17.5422 19H4.6158C3.72711 19 3 18.2125 3 17.25Z"
          stroke="white" stroke-width="1.5" stroke-linecap="round" stroke-linejoin="round"/>
</svg>
