<svg width="24" height="24" viewBox="0 0 24 24" fill="none" xmlns="http://www.w3.org/2000/svg">
    <path d="M8.25 9C8.25 9.41421 8.58579 9.75 9 9.75C9.41421 9.75 9.75 9.41421 9.75 9H8.25ZM14.25 6C14.25 6.41421 14.5858 6.75 15 6.75C15.4142 6.75 15.75 6.41421 15.75 6H14.25ZM11 15.7325H11.75C11.75 15.4647 11.6073 15.2173 11.3755 15.0832L11 15.7325ZM13 15.7325L12.6245 15.0832C12.3927 15.2173 12.25 15.4647 12.25 15.7325H13ZM9.75 9V6H8.25V9H9.75ZM9.75 6C9.75 4.75736 10.7573 3.75 12 3.75V2.25C9.92888 2.25 8.25 3.92894 8.25 6H9.75ZM12 3.75C13.2427 3.75 14.25 4.75736 14.25 6H15.75C15.75 3.92894 14.0711 2.25 12 2.25V3.75ZM4.75 11C4.75 10.3096 5.30964 9.75 6 9.75V8.25C4.48122 8.25 3.25 9.48118 3.25 11H4.75ZM6 9.75H18V8.25H6V9.75ZM18 9.75C18.6904 9.75 19.25 10.3096 19.25 11H20.75C20.75 9.48119 19.5188 8.25 18 8.25V9.75ZM19.25 11V17H20.75V11H19.25ZM19.25 17C19.25 18.7949 17.7949 20.25 16 20.25V21.75C18.6233 21.75 20.75 19.6233 20.75 17H19.25ZM16 20.25H8V21.75H16V20.25ZM8 20.25C6.20508 20.25 4.75 18.7949 4.75 17H3.25C3.25 19.6233 5.37664 21.75 8 21.75V20.25ZM4.75 17V11H3.25V17H4.75ZM12 11.25C10.4812 11.25 9.25 12.4812 9.25 14H10.75C10.75 13.3096 11.3096 12.75 12 12.75V11.25ZM9.25 14C9.25 15.0189 9.80444 15.9073 10.6245 16.3817L11.3755 15.0832C11 14.866 10.75 14.4618 10.75 14H9.25ZM10.25 15.7325V17H11.75V15.7325H10.25ZM10.25 17C10.25 17.9665 11.0335 18.75 12 18.75V17.25C11.8619 17.25 11.75 17.1381 11.75 17H10.25ZM12 18.75C12.9665 18.75 13.75 17.9665 13.75 17H12.25C12.25 17.1381 12.1381 17.25 12 17.25V18.75ZM13.75 17V15.7325H12.25V17H13.75ZM13.3755 16.3817C14.1956 15.9073 14.75 15.0189 14.75 14H13.25C13.25 14.4618 13 14.866 12.6245 15.0832L13.3755 16.3817ZM14.75 14C14.75 12.4812 13.5189 11.25 12 11.25V12.75C12.6904 12.75 13.25 13.3096 13.25 14H14.75Z"
          fill="white"/>
</svg>
