<svg width="24" height="24" viewBox="0 0 24 24" fill="none" xmlns="http://www.w3.org/2000/svg">
    <path d="M13 3H7C5.89543 3 5 3.89543 5 5V19C5 20.1046 5.89543 21 7 21H12M13 3V8C13 8.55228 13.4477 9 14 9H19M13 3L19 9M19 9V12M17 21L16.42 20.4964C14.36 18.715 13 17.5401 13 16.0981C13 14.9232 13.968 14 15.2 14C15.896 14 16.564 14.309 17 14.7973C17.436 14.309 18.104 14 18.8 14C20.032 14 21 14.9232 21 16.0981C21 17.5401 19.64 18.715 17.58 20.5003L17 21Z"
          stroke="white" stroke-width="1.5" stroke-linecap="round" stroke-linejoin="round"/>
</svg>
