<svg width="24" height="24" viewBox="0 0 24 24" fill="none" xmlns="http://www.w3.org/2000/svg">
    <path d="M13 3H7C5.89543 3 5 3.89543 5 5V19C5 20.1046 5.89543 21 7 21H12M13 3V8C13 8.55228 13.4477 9 14 9H19M13 3L19 9M19 9V12M20 21C19.271 20.271 17.3058 18.3058 17.3058 18.3058M18.2161 16.108C18.2161 17.8246 16.8246 19.2161 15.108 19.2161C13.3915 19.2161 12 17.8246 12 16.108C12 14.3915 13.3915 13 15.108 13C16.8246 13 18.2161 14.3915 18.2161 16.108Z"
          stroke="white" stroke-width="1.5" stroke-linecap="round" stroke-linejoin="round"/>
</svg>
