<svg width="24" height="24" viewBox="0 0 24 24" fill="none" xmlns="http://www.w3.org/2000/svg">
    <path d="M11.1942 4.05883V17.8619C11.1942 18.7273 10.1839 19.2272 9.4638 18.7182L5.20173 15.7059M11.1942 4.05883L5.20173 15.7059M11.1942 4.05883L4.20492 7.45494C3.21922 7.9339 2.75665 9.05267 3.12731 10.0613L5.20173 15.7059M17.7314 7.7647C17.7314 8.64186 16.9997 9.35294 16.0971 9.35294C15.1944 9.35294 14.4627 8.64186 14.4627 7.7647C14.4627 6.88755 15.1944 6.17647 16.0971 6.17647C16.9997 6.17647 17.7314 6.88755 17.7314 7.7647ZM13.3733 3H18.8209C20.0244 3 21 3.9481 21 5.11764V18.8823C21 20.0518 20.0244 21 18.8209 21H13.3733C12.1698 21 11.1942 20.0518 11.1942 18.8823V5.11764C11.1942 3.9481 12.1698 3 13.3733 3Z"
          stroke="white" stroke-width="1.5" stroke-linecap="round" stroke-linejoin="round"/>
</svg>
