<svg width="24" height="24" viewBox="0 0 24 24" fill="none" xmlns="http://www.w3.org/2000/svg">
    <path d="M22 13V17C22 18.1046 21.1046 19 20 19H4C2.89543 19 2 18.1046 2 17V9C2 7.89543 2.89543 7 4 7H12M15 13C15 14.6569 13.6569 16 12 16C10.3431 16 9 14.6569 9 13C9 11.3431 10.3431 10 12 10C13.6569 10 15 11.3431 15 13ZM18.3177 11C18.181 10.2161 17.625 9.23177 16.5677 8.4388C16.0482 8.04687 15.5195 7.79167 15 7.68229V7.29948C16.0299 7.05339 17.0417 6.36068 17.6888 5.42187C18.0169 4.94792 18.2266 4.48307 18.3177 4H18.7005C18.8555 4.92057 19.5664 5.94141 20.5326 6.625C21.0065 6.96224 21.4987 7.1901 22 7.29948V7.68229C20.9883 7.89193 19.8125 8.79427 19.2292 9.71484C18.9375 10.1797 18.7643 10.6081 18.7005 11H18.3177Z"
          stroke="white" stroke-width="1.5" stroke-linecap="round" stroke-linejoin="round"/>
</svg>
