<svg width="24" height="24" viewBox="0 0 24 24" fill="none" xmlns="http://www.w3.org/2000/svg">
    <path d="M22 13V17C22 18.1046 21.1046 19 20 19H4C2.89543 19 2 18.1046 2 17V9C2 7.89543 2.89543 7 4 7H12M15 13C15 14.6569 13.6569 16 12 16C10.3431 16 9 14.6569 9 13C9 11.3431 10.3431 10 12 10C13.6569 10 15 11.3431 15 13ZM19 12L18.42 11.4964C16.36 9.71498 15 8.54008 15 7.09809C15 5.92316 15.968 5 17.2 5C17.896 5 18.564 5.30899 19 5.79727C19.436 5.30899 20.104 5 20.8 5C22.032 5 23 5.92316 23 7.09809C23 8.54008 21.64 9.71498 19.58 11.5003L19 12Z"
          stroke="white" stroke-width="1.5" stroke-linecap="round" stroke-linejoin="round"/>
</svg>
