<svg width="24" height="24" viewBox="0 0 24 24" fill="none" xmlns="http://www.w3.org/2000/svg">
    <path d="M18 10.3636C18 8.41068 17.2098 6.53771 15.8033 5.15676C14.3968 3.77581 12.4891 3 10.5 3C8.51088 3 6.60322 3.77581 5.1967 5.15676C3.79018 6.53771 3 8.41068 3 10.3636C3 16.0909 10.5 21 10.5 21M13 10.5C13 11.8807 11.8807 13 10.5 13C9.11929 13 8 11.8807 8 10.5C8 9.11929 9.11929 8 10.5 8C11.8807 8 13 9.11929 13 10.5ZM17 22L16.42 21.4964C14.36 19.715 13 18.5401 13 17.0981C13 15.9232 13.968 15 15.2 15C15.896 15 16.564 15.309 17 15.7973C17.436 15.309 18.104 15 18.8 15C20.032 15 21 15.9232 21 17.0981C21 18.5401 19.64 19.715 17.58 21.5003L17 22Z"
          stroke="white" stroke-width="1.5" stroke-linecap="round" stroke-linejoin="round"/>
</svg>
