<svg width="24" height="24" viewBox="0 0 24 24" fill="none" xmlns="http://www.w3.org/2000/svg">
    <path d="M18 10.3636C18 8.41068 17.2098 6.53771 15.8033 5.15676C14.3968 3.77581 12.4891 3 10.5 3C8.51088 3 6.60322 3.77581 5.1967 5.15676C3.79018 6.53771 3 8.41068 3 10.3636C3 16.0909 10.5 21 10.5 21M20 15L17 18M17 18L14 21M17 18L20 21M17 18L14 15M13 10.5C13 11.8807 11.8807 13 10.5 13C9.11929 13 8 11.8807 8 10.5C8 9.11929 9.11929 8 10.5 8C11.8807 8 13 9.11929 13 10.5Z"
          stroke="white" stroke-width="1.5" stroke-linecap="round" stroke-linejoin="round"/>
</svg>
