<svg width="24" height="24" viewBox="0 0 24 24" fill="none" xmlns="http://www.w3.org/2000/svg">
    <path d="M9.39828 14.6017L4 20L9.39828 14.6017ZM9.39828 14.6017L6.89896 12.1024C5.59942 10.8029 6.30956 8.57815 8.12169 8.27186L9.96842 7.95972C10.4317 7.88142 10.859 7.66089 11.1912 7.32871L13.8572 4.66264C14.7408 3.77912 16.1733 3.77912 17.0567 4.66266L19.3374 6.94319C20.2209 7.82673 20.2209 9.25923 19.3374 10.1428L16.6712 12.8088C16.3391 13.141 16.1185 13.5683 16.0402 14.0316L15.7281 15.8783C15.4218 17.6904 13.1971 18.4006 11.8976 17.101L9.39828 14.6017Z"
          stroke="white" stroke-width="1.5" stroke-linecap="round" stroke-linejoin="round"/>
</svg>
