<svg width="24" height="24" viewBox="0 0 24 24" fill="none" xmlns="http://www.w3.org/2000/svg">
    <path d="M9 6H8C6.89543 6 6 6.89543 6 8V9M9 6V3M9 6H15M6 9H3M6 9V15M15 6H16C17.1046 6 18 6.89543 18 8V9M15 6V3M6 15V16C6 17.1046 6.89543 18 8 18H9M6 15H3M18 9H21M18 9V15M18 15V16C18 17.1046 17.1046 18 16 18H15M18 15H21M15 18H9M15 18V21M9 18V21M10 15H14C14.5523 15 15 14.5523 15 14V10C15 9.44772 14.5523 9 14 9H10C9.44772 9 9 9.44772 9 10V14C9 14.5523 9.44772 15 10 15Z"
          stroke="white" stroke-width="1.5" stroke-linecap="round" stroke-linejoin="round"/>
</svg>
