<svg width="24" height="24" viewBox="0 0 24 24" fill="none" xmlns="http://www.w3.org/2000/svg">
    <path d="M12 7H3.5C2.67157 7 2 7.67157 2 8.5V19.5C2 20.3284 2.67157 21 3.5 21H20.5C21.3284 21 22 20.3284 22 19.5V8.5C22 7.67157 21.3284 7 20.5 7H12ZM12 7L16 3M12 7L8 3M18 10H19M18 13H19M18 16H19M6.5 18H13.5C14.3284 18 15 17.3284 15 16.5V11.5C15 10.6716 14.3284 10 13.5 10H6.5C5.67157 10 5 10.6716 5 11.5V16.5C5 17.3284 5.67157 18 6.5 18Z"
          stroke="white" stroke-width="1.5" stroke-linecap="round" stroke-linejoin="round"/>
</svg>
