<svg width="24" height="24" viewBox="0 0 24 24" fill="none" xmlns="http://www.w3.org/2000/svg">
    <path d="M10.7765 3.66024C11.3094 3.12732 12.0735 2.89601 12.8125 3.04381L18.8622 4.25374C19.3083 4.34298 19.6571 4.69172 19.7462 5.13787L20.9562 11.1875C21.104 11.9265 20.8727 12.6905 20.3398 13.2235L13.2235 20.3398C12.3432 21.2201 10.916 21.2201 10.0357 20.3398L3.6602 13.9643C2.77993 13.0841 2.77993 11.6568 3.6602 10.7766L10.7765 3.66024Z"
          stroke="white" stroke-width="1.5" stroke-linejoin="round"/>
    <path d="M15.6143 11.5735C14.7339 12.4537 13.3068 12.4537 12.4264 11.5735C11.5462 10.6933 11.5462 9.26602 12.4264 8.38577C13.3068 7.5055 14.7339 7.5055 15.6143 8.38577C16.4945 9.26602 16.4945 10.6933 15.6143 11.5735Z"
          stroke="white" stroke-width="1.5" stroke-linejoin="round"/>
</svg>
