<svg width="24" height="24" viewBox="0 0 24 24" fill="none" xmlns="http://www.w3.org/2000/svg">
    <path d="M3 13.7244V16.3622M3 16.3622V19M3 16.3622H7.05893L8.73517 12.0167M3.93775 9.95431L16.1284 15.1951C16.6463 15.4178 17.1964 15.2708 17.357 14.867L19.1016 10.4792C19.2622 10.0753 18.9726 9.56737 18.4547 9.34472L6.264 4.10391C5.7461 3.88126 5.19607 4.02819 5.03547 4.43207L3.29079 8.81988C3.13019 9.22376 3.41985 9.73167 3.93775 9.95431ZM18.8109 11.2105L20.6864 12.0167C20.9453 12.1281 21.0684 12.4366 20.9614 12.7058L20.186 14.656C20.0789 14.9252 19.7822 15.0533 19.5232 14.9419L17.6477 14.1357L18.8109 11.2105Z"
          stroke="white" stroke-width="1.5" stroke-linecap="round" stroke-linejoin="round"/>
</svg>
