<svg width="24" height="24" viewBox="0 0 24 24" fill="none" xmlns="http://www.w3.org/2000/svg">
    <path d="M9.1875 21C5.475 21 3 19.1174 3 17.5425C3 16.7654 3 7.23459 3 6.45743C3 4.8826 5.475 3 9.1875 3C12.9 3 15.375 4.8826 15.375 6.45743V10.875M3 6.63564C3 8.3089 5.475 10.2713 9.1875 10.2713C12.9 10.2713 15.375 8.3089 15.375 6.63564M3 12.0891C3 13.7623 5.475 15.7248 9.1875 15.7248M16.5 21L15.8475 20.4335C13.53 18.4294 12 17.1076 12 15.4854C12 14.1636 13.089 13.125 14.475 13.125C15.258 13.125 16.0095 13.4726 16.5 14.022C16.9905 13.4726 17.742 13.125 18.525 13.125C19.911 13.125 21 14.1636 21 15.4854C21 17.1076 19.47 18.4294 17.1525 20.4378L16.5 21Z"
          stroke="white" stroke-width="1.5" stroke-linecap="round" stroke-linejoin="round"/>
</svg>
