<svg width="24" height="24" viewBox="0 0 24 24" fill="none" xmlns="http://www.w3.org/2000/svg">
    <path d="M9.1875 20.8824C5.475 20.8824 3 19.0121 3 17.4475C3 16.6754 3 7.20691 3 6.43483C3 4.87029 5.475 3 9.1875 3C12.9 3 15.375 4.87029 15.375 6.43483V10.8235M3 6.61188C3 8.2742 5.475 10.2238 9.1875 10.2238C12.9 10.2238 15.375 8.2742 15.375 6.61188M3 12.0297C3 13.692 5.475 15.6416 9.1875 15.6416M21 22C20.1799 21.1852 17.969 18.9888 17.969 18.9888M18.9931 16.5325C18.9931 18.451 17.4277 20.0062 15.4965 20.0062C13.5654 20.0062 12 18.451 12 16.5325C12 14.614 13.5654 13.0588 15.4965 13.0588C17.4277 13.0588 18.9931 14.614 18.9931 16.5325Z"
          stroke="white" stroke-width="1.5" stroke-linecap="round" stroke-linejoin="round"/>
</svg>
