<svg width="24" height="24" viewBox="0 0 24 24" fill="none" xmlns="http://www.w3.org/2000/svg">
    <path d="M5 6.63564C5 8.3089 7.6 10.2713 11.5 10.2713C15.4 10.2713 18 8.3089 18 6.63564M5 12.0891C5 13.7623 7.6 15.7248 11.5 15.7248C15.4 15.7248 18 13.7623 18 12.0891M5 6.45743C5 4.8826 7.6 3 11.5 3C15.4 3 18 4.8826 18 6.45743V17.5425C18 19.1174 15.4 21 11.5 21C7.6 21 5 19.1174 5 17.5425C5 16.7654 5 7.23459 5 6.45743Z"
          stroke="white" stroke-width="1.5" stroke-linecap="round" stroke-linejoin="round"/>
</svg>
