<svg width="24" height="24" viewBox="0 0 24 24" fill="none" xmlns="http://www.w3.org/2000/svg">
    <path d="M10.2857 21C6.51429 21 4 19.1174 4 17.5425C4 16.7654 4 7.23459 4 6.45743C4 4.8826 6.51429 3 10.2857 3C14.0571 3 16.5714 4.8826 16.5714 6.45743V10.875M4 6.63564C4 8.3089 6.51429 10.2713 10.2857 10.2713C14.0571 10.2713 16.5714 8.3089 16.5714 6.63564M4 12.0891C4 13.7623 6.51429 15.7248 10.2857 15.7248M20 14.25L16.5714 17.625M16.5714 17.625L13.1429 21M16.5714 17.625L20 21M16.5714 17.625L13.1429 14.25"
          stroke="white" stroke-width="1.5" stroke-linecap="round" stroke-linejoin="round"/>
</svg>
