<svg width="24" height="24" viewBox="0 0 24 24" fill="none" xmlns="http://www.w3.org/2000/svg">
    <path d="M8 9V6C8 4.34315 9.3431 3 11 3C12.6569 3 14 4.34315 14 6V9M18 11V9C18 7.89543 17.1046 7 16 7H6C4.89543 7 4 7.89543 4 9V17C4 18.1046 4.89543 19 6 19H11M21 21C20.271 20.271 18.3058 18.3058 18.3058 18.3058M19.2161 16.108C19.2161 17.8246 17.8246 19.2161 16.108 19.2161C14.3915 19.2161 13 17.8246 13 16.108C13 14.3915 14.3915 13 16.108 13C17.8246 13 19.2161 14.3915 19.2161 16.108Z"
          stroke="white" stroke-width="1.5" stroke-linecap="round" stroke-linejoin="round"/>
</svg>
