<svg width="24" height="24" viewBox="0 0 24 24" fill="none" xmlns="http://www.w3.org/2000/svg">
    <path d="M8 9V6C8 4.34315 9.3431 3 11 3C12.6569 3 14 4.34315 14 6V9M18 11V9C18 7.89543 17.1046 7 16 7H6C4.89543 7 4 7.89543 4 9V17C4 18.1046 4.89543 19 6 19H11M17 21L16.42 20.4964C14.36 18.715 13 17.5401 13 16.0981C13 14.9232 13.968 14 15.2 14C15.896 14 16.564 14.309 17 14.7973C17.436 14.309 18.104 14 18.8 14C20.032 14 21 14.9232 21 16.0981C21 17.5401 19.64 18.715 17.58 20.5003L17 21Z"
          stroke="white" stroke-width="1.5" stroke-linecap="round" stroke-linejoin="round"/>
</svg>
