<svg width="24" height="24" viewBox="0 0 24 24" fill="none" xmlns="http://www.w3.org/2000/svg">
    <path d="M22 17C22 15.6868 21.7413 14.3864 21.2388 13.1732C20.7362 11.9599 19.9997 10.8575 19.0711 9.92893C18.1425 9.00035 17.0401 8.26375 15.8268 7.7612C14.6136 7.25866 13.3132 7 12 7C10.6868 7 9.38642 7.25866 8.17317 7.7612C6.95991 8.26375 5.85752 9.00035 4.92893 9.92893C4.00035 10.8575 3.26375 11.9599 2.7612 13.1732C2.25866 14.3864 2 15.6868 2 17M10.8168 16.8992C10.6563 16.8327 10.5105 16.7352 10.3878 16.6122C10.2648 16.4895 10.1673 16.3437 10.1008 16.1832C10.0342 16.0227 10 15.8506 10 15.6769C10 15.5031 10.0342 15.3311 10.1008 15.1706C10.1673 15.0101 10.2648 14.8643 10.3878 14.7415L16 11L12.2585 16.6122C12.1357 16.7352 11.9899 16.8327 11.8294 16.8992C11.6689 16.9658 11.4969 17 11.3231 17C11.1494 17 10.9773 16.9658 10.8168 16.8992Z"
          stroke="white" stroke-width="1.5" stroke-linecap="round" stroke-linejoin="round"/>
</svg>
