<svg width="24" height="24" viewBox="0 0 24 24" fill="none" xmlns="http://www.w3.org/2000/svg">
    <path d="M12.5 20C11.1801 20.0035 9.87812 19.6951 8.7 19.1L3 21L4.9 15.3C4.30493 14.1219 3.99656 12.8199 4 11.5C4.00061 9.92179 4.44061 8.37488 5.27072 7.03258C6.10083 5.69028 7.28825 4.6056 8.7 3.90003C9.87812 3.30496 11.1801 2.99659 12.5 3.00003H13C15.0843 3.11502 17.053 3.99479 18.5291 5.47089C20.0052 6.94699 20.885 8.91568 21 11M16 20L15.42 19.4964C13.36 17.715 12 16.5401 12 15.0981C12 13.9232 12.968 13 14.2 13C14.896 13 15.564 13.309 16 13.7973C16.436 13.309 17.104 13 17.8 13C19.032 13 20 13.9232 20 15.0981C20 16.5401 18.64 17.715 16.58 19.5003L16 20Z"
          stroke="white" stroke-width="1.5" stroke-linecap="round" stroke-linejoin="round"/>
</svg>
