<svg width="24" height="24" viewBox="0 0 24 24" fill="none" xmlns="http://www.w3.org/2000/svg">
    <path d="M9 20H15M12 20V13M12 13C13.6569 13 15 11.6569 15 10C15 8.34315 13.6569 7 12 7C10.3431 7 9 8.34315 9 10C9 11.6569 10.3431 13 12 13ZM8.03126 5.5C6.78563 6.59942 6 8.20796 6 10C6 11.792 6.78563 13.4006 8.03126 14.5M6 16.4166C4.15875 14.7687 3 12.3738 3 9.70832C3 7.04282 4.15875 4.64796 6 3M15.9687 5.5C17.2144 6.59942 18 8.20796 18 10C18 11.792 17.2144 13.4006 15.9687 14.5M18 3C19.8412 4.64796 21 7.04282 21 9.70832C21 12.3738 19.8412 14.7687 18 16.4166"
          stroke="white" stroke-width="1.5" stroke-linecap="round" stroke-linejoin="round"/>
</svg>
