<svg width="24" height="24" viewBox="0 0 24 24" fill="none" xmlns="http://www.w3.org/2000/svg">
    <path d="M22 22V20C22 18.9391 21.5786 17.9217 20.8284 17.1716C20.0783 16.4214 19.0609 16 18 16H10C8.93913 16 7.92172 16.4214 7.17157 17.1716C6.42143 17.9217 6 18.9391 6 20V22M6 13C4.93913 13 3.92172 13.4214 3.17157 14.1716C2.42143 14.9217 2 15.9391 2 17V19M7.65138 9.98478C7.02254 9.92976 6.41565 9.7267 5.88032 9.39219C5.345 9.05769 4.89644 8.60123 4.57133 8.06015C4.24622 7.51907 4.05378 6.90873 4.00974 6.27903C3.96571 5.64932 4.07133 5.01814 4.31798 4.43707C4.56463 3.85601 4.94529 3.34158 5.42885 2.93582C5.91241 2.53007 6.48513 2.24452 7.1002 2.10252C7.71526 1.96052 8.3552 1.96611 8.96769 2.11882C9.58018 2.27153 10.1478 2.56703 10.6242 2.98116M14 13C16.2091 13 18 11.2091 18 9C18 6.79086 16.2091 5 14 5C11.7909 5 10 6.79086 10 9C10 11.2091 11.7909 13 14 13Z"
          stroke="white" stroke-width="1.5" stroke-linecap="round" stroke-linejoin="round"/>
</svg>
