<svg width="24" height="24" viewBox="0 0 24 24" fill="none" xmlns="http://www.w3.org/2000/svg">
    <path d="M16.7381 13.9659C15.4749 12.8545 13.8251 12.1818 12.018 12.1818C10.2108 12.1818 8.56102 12.8545 7.29557 13.9682M19.3769 10.7818C17.3832 9.10227 14.8186 8.09091 12.018 8.09091C9.21735 8.09091 6.65273 9.10227 4.65678 10.7818M22 7.62273C19.2713 5.35909 15.7784 4 11.973 4C8.1924 4 4.72196 5.34091 2 7.57727M10.557 17.5455C10.557 17.9312 10.7085 18.3012 10.9783 18.574C11.2481 18.8468 11.614 19 11.9955 19C12.377 19 12.7429 18.8468 13.0127 18.574C13.2825 18.3012 13.434 17.9312 13.434 17.5455C13.434 17.1597 13.2825 16.7897 13.0127 16.5169C12.7429 16.2442 12.377 16.0909 11.9955 16.0909C11.614 16.0909 11.2481 16.2442 10.9783 16.5169C10.7085 16.7897 10.557 17.1597 10.557 17.5455Z"
          stroke="white" stroke-width="1.5" stroke-linecap="round" stroke-linejoin="round"/>
</svg>
