<svg width="24" height="24" viewBox="0 0 24 24" fill="none" xmlns="http://www.w3.org/2000/svg">
    <path d="M13 3H7C5.89543 3 5 3.89543 5 5V19C5 20.1046 5.89543 21 7 21H17C18.1046 21 19 20.1046 19 19V9M13 3V8C13 8.55228 13.4477 9 14 9H19M13 3L19 9M9 13L9.93474 17.0505C10.0518 17.5578 10.7694 17.5708 10.9047 17.0681L11.5172 14.7933C11.65 14.2999 12.35 14.2999 12.4828 14.7933L13.0953 17.0681C13.2306 17.5708 13.9482 17.5578 14.0653 17.0505L15 13"
          stroke="white" stroke-width="1.5" stroke-linecap="round" stroke-linejoin="round"/>
</svg>
